<?xml version="1.0" encoding="UTF-8" standalone="no"?>
<!DOCTYPE svg PUBLIC "-//W3C//DTD SVG 1.1//EN" "http://www.w3.org/Graphics/SVG/1.1/DTD/svg11.dtd">
<svg width="100%" height="100%" viewBox="0 0 1065 700" version="1.1" xmlns="http://www.w3.org/2000/svg" xmlns:xlink="http://www.w3.org/1999/xlink" xml:space="preserve" xmlns:serif="http://www.serif.com/" style="fill-rule:evenodd;clip-rule:evenodd;stroke-linejoin:round;stroke-miterlimit:2;">
    <g transform="matrix(1,0,0,1,-524,-53)">
        <g transform="matrix(1,0,0,1.12319,-1.5,-897.217)">
            <rect x="525" y="846" width="1066" height="138"/>
        </g>
        <g transform="matrix(1,0,0,3.94928,-1.5,-3133.09)">
            <rect x="525" y="846" width="1066" height="138" style="fill:white;"/>
        </g>
        <g transform="matrix(2.05075,0,0,2.05075,-929.624,-1785.35)">
            <g transform="matrix(50,0,0,50,758.06,951.321)">
                <path d="M0.639,-0.36C0.716,-0.393 0.764,-0.452 0.764,-0.533C0.764,-0.639 0.679,-0.7 0.513,-0.7L0.142,-0.7L0.002,-0L0.406,-0C0.585,-0 0.733,-0.068 0.733,-0.223C0.733,-0.287 0.699,-0.334 0.639,-0.36ZM0.456,-0.535C0.495,-0.535 0.518,-0.521 0.518,-0.492C0.518,-0.454 0.494,-0.431 0.44,-0.431L0.32,-0.431L0.341,-0.535L0.456,-0.535ZM0.419,-0.165L0.267,-0.165L0.289,-0.275L0.441,-0.275C0.472,-0.275 0.499,-0.26 0.499,-0.229C0.499,-0.186 0.465,-0.165 0.419,-0.165Z" style="fill:white;fill-rule:nonzero;"/>
            </g>
            <g transform="matrix(50,0,0,50,796.71,951.321)">
                <path d="M0.535,-0L0.77,-0L0.604,-0.7L0.372,-0.7L-0.074,-0L0.175,-0L0.245,-0.122L0.512,-0.122L0.535,-0ZM0.342,-0.292L0.445,-0.471L0.479,-0.292L0.342,-0.292Z" style="fill:white;fill-rule:nonzero;"/>
            </g>
            <g transform="matrix(50,0,0,50,835.26,951.321)">
                <path d="M0.154,-0L0.39,-0L0.493,-0.517L0.698,-0.517L0.735,-0.7L0.089,-0.7L0.052,-0.517L0.257,-0.517L0.154,-0Z" style="fill:white;fill-rule:nonzero;"/>
            </g>
            <g transform="matrix(50,0,0,50,866.21,951.321)">
                <path d="M0.535,-0L0.77,-0L0.604,-0.7L0.372,-0.7L-0.074,-0L0.175,-0L0.245,-0.122L0.512,-0.122L0.535,-0ZM0.342,-0.292L0.445,-0.471L0.479,-0.292L0.342,-0.292Z" style="fill:white;fill-rule:nonzero;"/>
            </g>
            <g transform="matrix(50,0,0,50,906.51,951.321)">
                <path d="M0.779,-0.7L0.486,-0.328L0.334,-0.7L0.142,-0.7L0.002,-0L0.217,-0L0.28,-0.315L0.388,-0.063L0.492,-0.063L0.689,-0.319L0.627,-0L0.842,-0L0.98,-0.7L0.779,-0.7Z" style="fill:white;fill-rule:nonzero;"/>
            </g>
            <g transform="matrix(50,0,0,50,969.21,951.321)">
                <path d="M0.779,-0.7L0.486,-0.328L0.334,-0.7L0.142,-0.7L0.002,-0L0.217,-0L0.28,-0.315L0.388,-0.063L0.492,-0.063L0.689,-0.319L0.627,-0L0.842,-0L0.98,-0.7L0.779,-0.7Z" style="fill:white;fill-rule:nonzero;"/>
            </g>
            <g transform="matrix(50,0,0,50,1016.91,951.321)">
                <path d="M0.355,0.016C0.57,0.016 0.697,-0.095 0.739,-0.305L0.818,-0.7L0.586,-0.7L0.51,-0.319C0.489,-0.214 0.452,-0.175 0.384,-0.175C0.324,-0.175 0.29,-0.205 0.29,-0.268C0.29,-0.283 0.292,-0.3 0.296,-0.319L0.372,-0.7L0.136,-0.7L0.059,-0.315C0.054,-0.289 0.051,-0.265 0.051,-0.241C0.051,-0.084 0.165,0.016 0.355,0.016Z" style="fill:white;fill-rule:nonzero;"/>
            </g>
            <g transform="matrix(50,0,0,50,1056.11,951.321)">
                <path d="M0.002,-0L0.377,-0C0.632,-0 0.815,-0.156 0.815,-0.403C0.815,-0.587 0.679,-0.7 0.458,-0.7L0.142,-0.7L0.002,-0ZM0.275,-0.184L0.341,-0.516L0.431,-0.516C0.526,-0.516 0.577,-0.47 0.577,-0.389C0.577,-0.274 0.51,-0.184 0.385,-0.184L0.275,-0.184Z" style="fill:white;fill-rule:nonzero;"/>
            </g>
            <g transform="matrix(50,0,0,50,1096.91,951.321)">
                <path d="M0.535,-0L0.77,-0L0.604,-0.7L0.372,-0.7L-0.074,-0L0.175,-0L0.245,-0.122L0.512,-0.122L0.535,-0ZM0.342,-0.292L0.445,-0.471L0.479,-0.292L0.342,-0.292Z" style="fill:white;fill-rule:nonzero;"/>
            </g>
            <g transform="matrix(50,0,0,50,1137.21,951.321)">
                <path d="M0.596,-0.7L0.546,-0.452L0.328,-0.452L0.378,-0.7L0.142,-0.7L0.002,-0L0.238,-0L0.29,-0.258L0.508,-0.258L0.456,-0L0.692,-0L0.832,-0.7L0.596,-0.7Z" style="fill:white;fill-rule:nonzero;"/>
            </g>
        </g>
        <g transform="matrix(6.64078,0,0,6.64078,-47.7851,-1199.5)">
            <g transform="matrix(12,0,0,12,104.296,229.103)">
                <path d="M0.799,-0.7L0.481,-0.295L0.317,-0.7L0.156,-0.7L0.016,-0L0.198,-0L0.272,-0.369L0.399,-0.069L0.486,-0.069L0.719,-0.369L0.647,-0L0.83,-0L0.968,-0.7L0.799,-0.7Z" style="fill:rgb(212,32,41);fill-rule:nonzero;"/>
            </g>
            <g transform="matrix(12,0,0,12,115.624,229.103)">
                <path d="M0.357,0.014C0.563,0.014 0.686,-0.094 0.728,-0.303L0.807,-0.7L0.612,-0.7L0.535,-0.315C0.511,-0.197 0.464,-0.15 0.381,-0.15C0.306,-0.15 0.265,-0.185 0.265,-0.26C0.265,-0.277 0.267,-0.295 0.271,-0.315L0.348,-0.7L0.15,-0.7L0.072,-0.312C0.067,-0.286 0.064,-0.261 0.064,-0.238C0.064,-0.083 0.174,0.014 0.357,0.014Z" style="fill:rgb(212,32,41);fill-rule:nonzero;"/>
            </g>
            <g transform="matrix(12,0,0,12,124.936,229.103)">
                <path d="M0.016,-0L0.374,-0C0.631,-0 0.811,-0.158 0.811,-0.406C0.811,-0.587 0.678,-0.7 0.46,-0.7L0.156,-0.7L0.016,-0ZM0.246,-0.158L0.322,-0.542L0.438,-0.542C0.552,-0.542 0.611,-0.487 0.611,-0.394C0.611,-0.26 0.528,-0.158 0.38,-0.158L0.246,-0.158Z" style="fill:rgb(212,32,41);fill-rule:nonzero;"/>
            </g>
            <g transform="matrix(12,0,0,12,134.608,229.103)">
                <path d="M0.548,-0L0.745,-0L0.576,-0.7L0.381,-0.7L-0.068,-0L0.141,-0L0.222,-0.136L0.52,-0.136L0.548,-0ZM0.309,-0.282L0.443,-0.509L0.49,-0.282L0.309,-0.282Z" style="fill:rgb(212,32,41);fill-rule:nonzero;"/>
            </g>
            <g transform="matrix(12,0,0,12,143.92,229.103)">
                <path d="M0.623,-0.7L0.571,-0.438L0.302,-0.438L0.354,-0.7L0.156,-0.7L0.016,-0L0.214,-0L0.268,-0.272L0.537,-0.272L0.483,-0L0.681,-0L0.821,-0.7L0.623,-0.7Z" style="fill:rgb(212,32,41);fill-rule:nonzero;"/>
            </g>
            <g transform="matrix(12,0,0,12,156.844,229.103)">
                <path d="M0.628,-0.361C0.704,-0.393 0.753,-0.452 0.753,-0.536C0.753,-0.641 0.668,-0.7 0.51,-0.7L0.156,-0.7L0.016,-0L0.401,-0C0.581,-0 0.722,-0.07 0.722,-0.222C0.722,-0.287 0.688,-0.335 0.628,-0.361ZM0.463,-0.557C0.515,-0.557 0.546,-0.54 0.546,-0.502C0.546,-0.45 0.508,-0.422 0.438,-0.422L0.296,-0.422L0.323,-0.557L0.463,-0.557ZM0.412,-0.143L0.24,-0.143L0.268,-0.285L0.443,-0.285C0.491,-0.285 0.525,-0.268 0.525,-0.226C0.525,-0.17 0.481,-0.143 0.412,-0.143Z" style="fill:rgb(212,32,41);fill-rule:nonzero;"/>
            </g>
            <g transform="matrix(12,0,0,12,165.952,229.103)">
                <path d="M0.673,-0.547L0.704,-0.7L0.156,-0.7L0.016,-0L0.577,-0L0.609,-0.153L0.242,-0.153L0.267,-0.281L0.579,-0.281L0.608,-0.429L0.297,-0.429L0.32,-0.547L0.673,-0.547Z" style="fill:rgb(212,32,41);fill-rule:nonzero;"/>
            </g>
            <g transform="matrix(12,0,0,12,173.896,229.103)">
                <path d="M0.737,-0.477C0.737,-0.617 0.634,-0.7 0.455,-0.7L0.156,-0.7L0.016,-0L0.214,-0L0.251,-0.186L0.351,-0.186L0.455,-0L0.662,-0L0.543,-0.21C0.665,-0.252 0.737,-0.348 0.737,-0.477ZM0.537,-0.458C0.537,-0.381 0.486,-0.339 0.399,-0.339L0.281,-0.339L0.323,-0.544L0.427,-0.544C0.495,-0.544 0.537,-0.517 0.537,-0.458Z" style="fill:rgb(212,32,41);fill-rule:nonzero;"/>
            </g>
            <g transform="matrix(12,0,0,12,182.656,229.103)">
                <path d="M0.357,0.014C0.563,0.014 0.686,-0.094 0.728,-0.303L0.807,-0.7L0.612,-0.7L0.535,-0.315C0.511,-0.197 0.464,-0.15 0.381,-0.15C0.306,-0.15 0.265,-0.185 0.265,-0.26C0.265,-0.277 0.267,-0.295 0.271,-0.315L0.348,-0.7L0.15,-0.7L0.072,-0.312C0.067,-0.286 0.064,-0.261 0.064,-0.238C0.064,-0.083 0.174,0.014 0.357,0.014Z" style="fill:rgb(212,32,41);fill-rule:nonzero;"/>
            </g>
            <g transform="matrix(12,0,0,12,191.968,229.103)">
                <path d="M0.277,0.014C0.482,0.014 0.614,-0.085 0.614,-0.235C0.614,-0.451 0.273,-0.396 0.274,-0.492C0.274,-0.53 0.318,-0.56 0.4,-0.56C0.469,-0.56 0.537,-0.542 0.592,-0.507L0.664,-0.654C0.601,-0.693 0.511,-0.714 0.412,-0.714C0.205,-0.714 0.076,-0.615 0.076,-0.464C0.076,-0.244 0.416,-0.296 0.416,-0.202C0.416,-0.164 0.372,-0.14 0.296,-0.14C0.216,-0.14 0.134,-0.164 0.063,-0.209L-0.015,-0.061C0.048,-0.018 0.157,0.014 0.277,0.014Z" style="fill:rgb(212,32,41);fill-rule:nonzero;"/>
            </g>
            <g transform="matrix(12,0,0,12,199.612,229.103)">
                <path d="M0.548,-0L0.745,-0L0.576,-0.7L0.381,-0.7L-0.068,-0L0.141,-0L0.222,-0.136L0.52,-0.136L0.548,-0ZM0.309,-0.282L0.443,-0.509L0.49,-0.282L0.309,-0.282Z" style="fill:rgb(212,32,41);fill-rule:nonzero;"/>
            </g>
            <g transform="matrix(12,0,0,12,208.924,229.103)">
                <path d="M0.623,-0.7L0.571,-0.438L0.302,-0.438L0.354,-0.7L0.156,-0.7L0.016,-0L0.214,-0L0.268,-0.272L0.537,-0.272L0.483,-0L0.681,-0L0.821,-0.7L0.623,-0.7Z" style="fill:rgb(212,32,41);fill-rule:nonzero;"/>
            </g>
            <g transform="matrix(12,0,0,12,218.476,229.103)">
                <path d="M0.548,-0L0.745,-0L0.576,-0.7L0.381,-0.7L-0.068,-0L0.141,-0L0.222,-0.136L0.52,-0.136L0.548,-0ZM0.309,-0.282L0.443,-0.509L0.49,-0.282L0.309,-0.282Z" style="fill:rgb(212,32,41);fill-rule:nonzero;"/>
            </g>
            <g transform="matrix(12,0,0,12,110.65,243.143)">
                <path d="M0.799,-0.7L0.481,-0.295L0.317,-0.7L0.156,-0.7L0.016,-0L0.198,-0L0.272,-0.369L0.399,-0.069L0.486,-0.069L0.719,-0.369L0.647,-0L0.83,-0L0.968,-0.7L0.799,-0.7Z" style="fill:rgb(212,32,41);fill-rule:nonzero;"/>
            </g>
            <g transform="matrix(12,0,0,12,121.978,243.143)">
                <path d="M0.357,0.014C0.563,0.014 0.686,-0.094 0.728,-0.303L0.807,-0.7L0.612,-0.7L0.535,-0.315C0.511,-0.197 0.464,-0.15 0.381,-0.15C0.306,-0.15 0.265,-0.185 0.265,-0.26C0.265,-0.277 0.267,-0.295 0.271,-0.315L0.348,-0.7L0.15,-0.7L0.072,-0.312C0.067,-0.286 0.064,-0.261 0.064,-0.238C0.064,-0.083 0.174,0.014 0.357,0.014Z" style="fill:rgb(212,32,41);fill-rule:nonzero;"/>
            </g>
            <g transform="matrix(12,0,0,12,131.29,243.143)">
                <path d="M0.016,-0L0.374,-0C0.631,-0 0.811,-0.158 0.811,-0.406C0.811,-0.587 0.678,-0.7 0.46,-0.7L0.156,-0.7L0.016,-0ZM0.246,-0.158L0.322,-0.542L0.438,-0.542C0.552,-0.542 0.611,-0.487 0.611,-0.394C0.611,-0.26 0.528,-0.158 0.38,-0.158L0.246,-0.158Z" style="fill:rgb(212,32,41);fill-rule:nonzero;"/>
            </g>
            <g transform="matrix(12,0,0,12,140.962,243.143)">
                <path d="M0.548,-0L0.745,-0L0.576,-0.7L0.381,-0.7L-0.068,-0L0.141,-0L0.222,-0.136L0.52,-0.136L0.548,-0ZM0.309,-0.282L0.443,-0.509L0.49,-0.282L0.309,-0.282Z" style="fill:rgb(212,32,41);fill-rule:nonzero;"/>
            </g>
            <g transform="matrix(12,0,0,12,150.274,243.143)">
                <path d="M0.623,-0.7L0.571,-0.438L0.302,-0.438L0.354,-0.7L0.156,-0.7L0.016,-0L0.214,-0L0.268,-0.272L0.537,-0.272L0.483,-0L0.681,-0L0.821,-0.7L0.623,-0.7Z" style="fill:rgb(212,32,41);fill-rule:nonzero;"/>
            </g>
            <g transform="matrix(12,0,0,12,163.198,243.143)">
                <path d="M0.628,-0.361C0.704,-0.393 0.753,-0.452 0.753,-0.536C0.753,-0.641 0.668,-0.7 0.51,-0.7L0.156,-0.7L0.016,-0L0.401,-0C0.581,-0 0.722,-0.07 0.722,-0.222C0.722,-0.287 0.688,-0.335 0.628,-0.361ZM0.463,-0.557C0.515,-0.557 0.546,-0.54 0.546,-0.502C0.546,-0.45 0.508,-0.422 0.438,-0.422L0.296,-0.422L0.323,-0.557L0.463,-0.557ZM0.412,-0.143L0.24,-0.143L0.268,-0.285L0.443,-0.285C0.491,-0.285 0.525,-0.268 0.525,-0.226C0.525,-0.17 0.481,-0.143 0.412,-0.143Z" style="fill:rgb(212,32,41);fill-rule:nonzero;"/>
            </g>
            <g transform="matrix(12,0,0,12,172.306,243.143)">
                <path d="M0.673,-0.547L0.704,-0.7L0.156,-0.7L0.016,-0L0.577,-0L0.609,-0.153L0.242,-0.153L0.267,-0.281L0.579,-0.281L0.608,-0.429L0.297,-0.429L0.32,-0.547L0.673,-0.547Z" style="fill:rgb(212,32,41);fill-rule:nonzero;"/>
            </g>
            <g transform="matrix(12,0,0,12,180.25,243.143)">
                <path d="M0.843,-0.7L0.61,-0.7L0.294,-0.414L0.351,-0.7L0.156,-0.7L0.016,-0L0.211,-0L0.245,-0.17L0.336,-0.252L0.497,-0L0.718,-0L0.483,-0.378L0.843,-0.7Z" style="fill:rgb(212,32,41);fill-rule:nonzero;"/>
            </g>
            <g transform="matrix(12,0,0,12,189.154,243.143)">
                <path d="M0.673,-0.547L0.704,-0.7L0.156,-0.7L0.016,-0L0.577,-0L0.609,-0.153L0.242,-0.153L0.267,-0.281L0.579,-0.281L0.608,-0.429L0.297,-0.429L0.32,-0.547L0.673,-0.547Z" style="fill:rgb(212,32,41);fill-rule:nonzero;"/>
            </g>
            <g transform="matrix(12,0,0,12,197.098,243.143)">
                <path d="M0.737,-0.477C0.737,-0.617 0.634,-0.7 0.455,-0.7L0.156,-0.7L0.016,-0L0.214,-0L0.251,-0.186L0.351,-0.186L0.455,-0L0.662,-0L0.543,-0.21C0.665,-0.252 0.737,-0.348 0.737,-0.477ZM0.537,-0.458C0.537,-0.381 0.486,-0.339 0.399,-0.339L0.281,-0.339L0.323,-0.544L0.427,-0.544C0.495,-0.544 0.537,-0.517 0.537,-0.458Z" style="fill:rgb(212,32,41);fill-rule:nonzero;"/>
            </g>
            <g transform="matrix(12,0,0,12,205.738,243.143)">
                <path d="M0.187,0.014C0.352,0.014 0.45,-0.056 0.488,-0.249L0.579,-0.7L0.141,-0.7L0.11,-0.547L0.352,-0.547L0.291,-0.238C0.278,-0.175 0.244,-0.144 0.19,-0.144C0.142,-0.144 0.105,-0.169 0.075,-0.215L-0.053,-0.093C-0.006,-0.023 0.075,0.014 0.187,0.014Z" style="fill:rgb(212,32,41);fill-rule:nonzero;"/>
            </g>
            <g transform="matrix(12,0,0,12,212.122,243.143)">
                <path d="M0.548,-0L0.745,-0L0.576,-0.7L0.381,-0.7L-0.068,-0L0.141,-0L0.222,-0.136L0.52,-0.136L0.548,-0ZM0.309,-0.282L0.443,-0.509L0.49,-0.282L0.309,-0.282Z" style="fill:rgb(212,32,41);fill-rule:nonzero;"/>
            </g>
            <g transform="matrix(12,0,0,12,109.096,257.183)">
                <path d="M0.799,-0.7L0.481,-0.295L0.317,-0.7L0.156,-0.7L0.016,-0L0.198,-0L0.272,-0.369L0.399,-0.069L0.486,-0.069L0.719,-0.369L0.647,-0L0.83,-0L0.968,-0.7L0.799,-0.7Z" style="fill:rgb(212,32,41);fill-rule:nonzero;"/>
            </g>
            <g transform="matrix(12,0,0,12,120.424,257.183)">
                <path d="M0.357,0.014C0.563,0.014 0.686,-0.094 0.728,-0.303L0.807,-0.7L0.612,-0.7L0.535,-0.315C0.511,-0.197 0.464,-0.15 0.381,-0.15C0.306,-0.15 0.265,-0.185 0.265,-0.26C0.265,-0.277 0.267,-0.295 0.271,-0.315L0.348,-0.7L0.15,-0.7L0.072,-0.312C0.067,-0.286 0.064,-0.261 0.064,-0.238C0.064,-0.083 0.174,0.014 0.357,0.014Z" style="fill:rgb(212,32,41);fill-rule:nonzero;"/>
            </g>
            <g transform="matrix(12,0,0,12,129.736,257.183)">
                <path d="M0.016,-0L0.374,-0C0.631,-0 0.811,-0.158 0.811,-0.406C0.811,-0.587 0.678,-0.7 0.46,-0.7L0.156,-0.7L0.016,-0ZM0.246,-0.158L0.322,-0.542L0.438,-0.542C0.552,-0.542 0.611,-0.487 0.611,-0.394C0.611,-0.26 0.528,-0.158 0.38,-0.158L0.246,-0.158Z" style="fill:rgb(212,32,41);fill-rule:nonzero;"/>
            </g>
            <g transform="matrix(12,0,0,12,139.408,257.183)">
                <path d="M0.548,-0L0.745,-0L0.576,-0.7L0.381,-0.7L-0.068,-0L0.141,-0L0.222,-0.136L0.52,-0.136L0.548,-0ZM0.309,-0.282L0.443,-0.509L0.49,-0.282L0.309,-0.282Z" style="fill:rgb(212,32,41);fill-rule:nonzero;"/>
            </g>
            <g transform="matrix(12,0,0,12,148.72,257.183)">
                <path d="M0.623,-0.7L0.571,-0.438L0.302,-0.438L0.354,-0.7L0.156,-0.7L0.016,-0L0.214,-0L0.268,-0.272L0.537,-0.272L0.483,-0L0.681,-0L0.821,-0.7L0.623,-0.7Z" style="fill:rgb(212,32,41);fill-rule:nonzero;"/>
            </g>
            <g transform="matrix(12,0,0,12,161.644,257.183)">
                <path d="M0.628,-0.361C0.704,-0.393 0.753,-0.452 0.753,-0.536C0.753,-0.641 0.668,-0.7 0.51,-0.7L0.156,-0.7L0.016,-0L0.401,-0C0.581,-0 0.722,-0.07 0.722,-0.222C0.722,-0.287 0.688,-0.335 0.628,-0.361ZM0.463,-0.557C0.515,-0.557 0.546,-0.54 0.546,-0.502C0.546,-0.45 0.508,-0.422 0.438,-0.422L0.296,-0.422L0.323,-0.557L0.463,-0.557ZM0.412,-0.143L0.24,-0.143L0.268,-0.285L0.443,-0.285C0.491,-0.285 0.525,-0.268 0.525,-0.226C0.525,-0.17 0.481,-0.143 0.412,-0.143Z" style="fill:rgb(212,32,41);fill-rule:nonzero;"/>
            </g>
            <g transform="matrix(12,0,0,12,170.752,257.183)">
                <path d="M0.673,-0.547L0.704,-0.7L0.156,-0.7L0.016,-0L0.577,-0L0.609,-0.153L0.242,-0.153L0.267,-0.281L0.579,-0.281L0.608,-0.429L0.297,-0.429L0.32,-0.547L0.673,-0.547Z" style="fill:rgb(212,32,41);fill-rule:nonzero;"/>
            </g>
            <g transform="matrix(12,0,0,12,178.696,257.183)">
                <path d="M0.737,-0.477C0.737,-0.617 0.634,-0.7 0.455,-0.7L0.156,-0.7L0.016,-0L0.214,-0L0.251,-0.186L0.351,-0.186L0.455,-0L0.662,-0L0.543,-0.21C0.665,-0.252 0.737,-0.348 0.737,-0.477ZM0.537,-0.458C0.537,-0.381 0.486,-0.339 0.399,-0.339L0.281,-0.339L0.323,-0.544L0.427,-0.544C0.495,-0.544 0.537,-0.517 0.537,-0.458Z" style="fill:rgb(212,32,41);fill-rule:nonzero;"/>
            </g>
            <g transform="matrix(12,0,0,12,187.456,257.183)">
                <path d="M0.394,0.014C0.651,0.014 0.831,-0.163 0.831,-0.406C0.831,-0.587 0.698,-0.714 0.483,-0.714C0.226,-0.714 0.046,-0.537 0.046,-0.294C0.046,-0.113 0.179,0.014 0.394,0.014ZM0.411,-0.15C0.306,-0.15 0.246,-0.213 0.246,-0.306C0.246,-0.438 0.329,-0.55 0.466,-0.55C0.571,-0.55 0.631,-0.487 0.631,-0.394C0.631,-0.262 0.548,-0.15 0.411,-0.15Z" style="fill:rgb(212,32,41);fill-rule:nonzero;"/>
            </g>
            <g transform="matrix(12,0,0,12,197.488,257.183)">
                <path d="M0.628,-0.361C0.704,-0.393 0.753,-0.452 0.753,-0.536C0.753,-0.641 0.668,-0.7 0.51,-0.7L0.156,-0.7L0.016,-0L0.401,-0C0.581,-0 0.722,-0.07 0.722,-0.222C0.722,-0.287 0.688,-0.335 0.628,-0.361ZM0.463,-0.557C0.515,-0.557 0.546,-0.54 0.546,-0.502C0.546,-0.45 0.508,-0.422 0.438,-0.422L0.296,-0.422L0.323,-0.557L0.463,-0.557ZM0.412,-0.143L0.24,-0.143L0.268,-0.285L0.443,-0.285C0.491,-0.285 0.525,-0.268 0.525,-0.226C0.525,-0.17 0.481,-0.143 0.412,-0.143Z" style="fill:rgb(212,32,41);fill-rule:nonzero;"/>
            </g>
            <g transform="matrix(12,0,0,12,206.596,257.183)">
                <path d="M0.548,-0L0.745,-0L0.576,-0.7L0.381,-0.7L-0.068,-0L0.141,-0L0.222,-0.136L0.52,-0.136L0.548,-0ZM0.309,-0.282L0.443,-0.509L0.49,-0.282L0.309,-0.282Z" style="fill:rgb(212,32,41);fill-rule:nonzero;"/>
            </g>
            <g transform="matrix(12,0,0,12,215.488,257.183)">
                <path d="M0.164,-0L0.362,-0L0.471,-0.543L0.685,-0.543L0.717,-0.7L0.09,-0.7L0.058,-0.543L0.273,-0.543L0.164,-0Z" style="fill:rgb(212,32,41);fill-rule:nonzero;"/>
            </g>
            <g transform="matrix(12,0,0,12,96.67,271.223)">
                <path d="M0.799,-0.7L0.481,-0.295L0.317,-0.7L0.156,-0.7L0.016,-0L0.198,-0L0.272,-0.369L0.399,-0.069L0.486,-0.069L0.719,-0.369L0.647,-0L0.83,-0L0.968,-0.7L0.799,-0.7Z" style="fill:rgb(212,32,41);fill-rule:nonzero;"/>
            </g>
            <g transform="matrix(12,0,0,12,107.998,271.223)">
                <path d="M0.357,0.014C0.563,0.014 0.686,-0.094 0.728,-0.303L0.807,-0.7L0.612,-0.7L0.535,-0.315C0.511,-0.197 0.464,-0.15 0.381,-0.15C0.306,-0.15 0.265,-0.185 0.265,-0.26C0.265,-0.277 0.267,-0.295 0.271,-0.315L0.348,-0.7L0.15,-0.7L0.072,-0.312C0.067,-0.286 0.064,-0.261 0.064,-0.238C0.064,-0.083 0.174,0.014 0.357,0.014Z" style="fill:rgb(212,32,41);fill-rule:nonzero;"/>
            </g>
            <g transform="matrix(12,0,0,12,117.31,271.223)">
                <path d="M0.016,-0L0.374,-0C0.631,-0 0.811,-0.158 0.811,-0.406C0.811,-0.587 0.678,-0.7 0.46,-0.7L0.156,-0.7L0.016,-0ZM0.246,-0.158L0.322,-0.542L0.438,-0.542C0.552,-0.542 0.611,-0.487 0.611,-0.394C0.611,-0.26 0.528,-0.158 0.38,-0.158L0.246,-0.158Z" style="fill:rgb(212,32,41);fill-rule:nonzero;"/>
            </g>
            <g transform="matrix(12,0,0,12,126.982,271.223)">
                <path d="M0.548,-0L0.745,-0L0.576,-0.7L0.381,-0.7L-0.068,-0L0.141,-0L0.222,-0.136L0.52,-0.136L0.548,-0ZM0.309,-0.282L0.443,-0.509L0.49,-0.282L0.309,-0.282Z" style="fill:rgb(212,32,41);fill-rule:nonzero;"/>
            </g>
            <g transform="matrix(12,0,0,12,136.294,271.223)">
                <path d="M0.623,-0.7L0.571,-0.438L0.302,-0.438L0.354,-0.7L0.156,-0.7L0.016,-0L0.214,-0L0.268,-0.272L0.537,-0.272L0.483,-0L0.681,-0L0.821,-0.7L0.623,-0.7Z" style="fill:rgb(212,32,41);fill-rule:nonzero;"/>
            </g>
            <g transform="matrix(12,0,0,12,149.218,271.223)">
                <path d="M0.628,-0.361C0.704,-0.393 0.753,-0.452 0.753,-0.536C0.753,-0.641 0.668,-0.7 0.51,-0.7L0.156,-0.7L0.016,-0L0.401,-0C0.581,-0 0.722,-0.07 0.722,-0.222C0.722,-0.287 0.688,-0.335 0.628,-0.361ZM0.463,-0.557C0.515,-0.557 0.546,-0.54 0.546,-0.502C0.546,-0.45 0.508,-0.422 0.438,-0.422L0.296,-0.422L0.323,-0.557L0.463,-0.557ZM0.412,-0.143L0.24,-0.143L0.268,-0.285L0.443,-0.285C0.491,-0.285 0.525,-0.268 0.525,-0.226C0.525,-0.17 0.481,-0.143 0.412,-0.143Z" style="fill:rgb(212,32,41);fill-rule:nonzero;"/>
            </g>
            <g transform="matrix(12,0,0,12,158.326,271.223)">
                <path d="M0.673,-0.547L0.704,-0.7L0.156,-0.7L0.016,-0L0.577,-0L0.609,-0.153L0.242,-0.153L0.267,-0.281L0.579,-0.281L0.608,-0.429L0.297,-0.429L0.32,-0.547L0.673,-0.547Z" style="fill:rgb(212,32,41);fill-rule:nonzero;"/>
            </g>
            <g transform="matrix(12,0,0,12,166.27,271.223)">
                <path d="M0.737,-0.477C0.737,-0.617 0.634,-0.7 0.455,-0.7L0.156,-0.7L0.016,-0L0.214,-0L0.251,-0.186L0.351,-0.186L0.455,-0L0.662,-0L0.543,-0.21C0.665,-0.252 0.737,-0.348 0.737,-0.477ZM0.537,-0.458C0.537,-0.381 0.486,-0.339 0.399,-0.339L0.281,-0.339L0.323,-0.544L0.427,-0.544C0.495,-0.544 0.537,-0.517 0.537,-0.458Z" style="fill:rgb(212,32,41);fill-rule:nonzero;"/>
            </g>
            <g transform="matrix(12,0,0,12,175.03,271.223)">
                <path d="M0.277,0.014C0.482,0.014 0.614,-0.085 0.614,-0.235C0.614,-0.451 0.273,-0.396 0.274,-0.492C0.274,-0.53 0.318,-0.56 0.4,-0.56C0.469,-0.56 0.537,-0.542 0.592,-0.507L0.664,-0.654C0.601,-0.693 0.511,-0.714 0.412,-0.714C0.205,-0.714 0.076,-0.615 0.076,-0.464C0.076,-0.244 0.416,-0.296 0.416,-0.202C0.416,-0.164 0.372,-0.14 0.296,-0.14C0.216,-0.14 0.134,-0.164 0.063,-0.209L-0.015,-0.061C0.048,-0.018 0.157,0.014 0.277,0.014Z" style="fill:rgb(212,32,41);fill-rule:nonzero;"/>
            </g>
            <g transform="matrix(12,0,0,12,182.674,271.223)">
                <path d="M0.673,-0.547L0.704,-0.7L0.156,-0.7L0.016,-0L0.577,-0L0.609,-0.153L0.242,-0.153L0.267,-0.281L0.579,-0.281L0.608,-0.429L0.297,-0.429L0.32,-0.547L0.673,-0.547Z" style="fill:rgb(212,32,41);fill-rule:nonzero;"/>
            </g>
            <g transform="matrix(12,0,0,12,190.618,271.223)">
                <path d="M0.843,-0.7L0.61,-0.7L0.294,-0.414L0.351,-0.7L0.156,-0.7L0.016,-0L0.211,-0L0.245,-0.17L0.336,-0.252L0.497,-0L0.718,-0L0.483,-0.378L0.843,-0.7Z" style="fill:rgb(212,32,41);fill-rule:nonzero;"/>
            </g>
            <g transform="matrix(12,0,0,12,199.222,271.223)">
                <path d="M0.394,0.014C0.651,0.014 0.831,-0.163 0.831,-0.406C0.831,-0.587 0.698,-0.714 0.483,-0.714C0.226,-0.714 0.046,-0.537 0.046,-0.294C0.046,-0.113 0.179,0.014 0.394,0.014ZM0.411,-0.15C0.306,-0.15 0.246,-0.213 0.246,-0.306C0.246,-0.438 0.329,-0.55 0.466,-0.55C0.571,-0.55 0.631,-0.487 0.631,-0.394C0.631,-0.262 0.548,-0.15 0.411,-0.15Z" style="fill:rgb(212,32,41);fill-rule:nonzero;"/>
            </g>
            <g transform="matrix(12,0,0,12,209.254,271.223)">
                <path d="M0.016,-0L0.548,-0L0.58,-0.157L0.246,-0.157L0.354,-0.7L0.156,-0.7L0.016,-0Z" style="fill:rgb(212,32,41);fill-rule:nonzero;"/>
            </g>
            <g transform="matrix(12,0,0,12,216.55,271.223)">
                <path d="M0.548,-0L0.745,-0L0.576,-0.7L0.381,-0.7L-0.068,-0L0.141,-0L0.222,-0.136L0.52,-0.136L0.548,-0ZM0.309,-0.282L0.443,-0.509L0.49,-0.282L0.309,-0.282Z" style="fill:rgb(212,32,41);fill-rule:nonzero;"/>
            </g>
            <g transform="matrix(12,0,0,12,225.862,271.223)">
                <path d="M0.623,-0.7L0.571,-0.438L0.302,-0.438L0.354,-0.7L0.156,-0.7L0.016,-0L0.214,-0L0.268,-0.272L0.537,-0.272L0.483,-0L0.681,-0L0.821,-0.7L0.623,-0.7Z" style="fill:rgb(212,32,41);fill-rule:nonzero;"/>
            </g>
            <g transform="matrix(12,0,0,12,101.41,285.263)">
                <path d="M0.799,-0.7L0.481,-0.295L0.317,-0.7L0.156,-0.7L0.016,-0L0.198,-0L0.272,-0.369L0.399,-0.069L0.486,-0.069L0.719,-0.369L0.647,-0L0.83,-0L0.968,-0.7L0.799,-0.7Z" style="fill:rgb(212,32,41);fill-rule:nonzero;"/>
            </g>
            <g transform="matrix(12,0,0,12,112.738,285.263)">
                <path d="M0.357,0.014C0.563,0.014 0.686,-0.094 0.728,-0.303L0.807,-0.7L0.612,-0.7L0.535,-0.315C0.511,-0.197 0.464,-0.15 0.381,-0.15C0.306,-0.15 0.265,-0.185 0.265,-0.26C0.265,-0.277 0.267,-0.295 0.271,-0.315L0.348,-0.7L0.15,-0.7L0.072,-0.312C0.067,-0.286 0.064,-0.261 0.064,-0.238C0.064,-0.083 0.174,0.014 0.357,0.014Z" style="fill:rgb(212,32,41);fill-rule:nonzero;"/>
            </g>
            <g transform="matrix(12,0,0,12,122.05,285.263)">
                <path d="M0.016,-0L0.374,-0C0.631,-0 0.811,-0.158 0.811,-0.406C0.811,-0.587 0.678,-0.7 0.46,-0.7L0.156,-0.7L0.016,-0ZM0.246,-0.158L0.322,-0.542L0.438,-0.542C0.552,-0.542 0.611,-0.487 0.611,-0.394C0.611,-0.26 0.528,-0.158 0.38,-0.158L0.246,-0.158Z" style="fill:rgb(212,32,41);fill-rule:nonzero;"/>
            </g>
            <g transform="matrix(12,0,0,12,131.722,285.263)">
                <path d="M0.548,-0L0.745,-0L0.576,-0.7L0.381,-0.7L-0.068,-0L0.141,-0L0.222,-0.136L0.52,-0.136L0.548,-0ZM0.309,-0.282L0.443,-0.509L0.49,-0.282L0.309,-0.282Z" style="fill:rgb(212,32,41);fill-rule:nonzero;"/>
            </g>
            <g transform="matrix(12,0,0,12,141.034,285.263)">
                <path d="M0.623,-0.7L0.571,-0.438L0.302,-0.438L0.354,-0.7L0.156,-0.7L0.016,-0L0.214,-0L0.268,-0.272L0.537,-0.272L0.483,-0L0.681,-0L0.821,-0.7L0.623,-0.7Z" style="fill:rgb(212,32,41);fill-rule:nonzero;"/>
            </g>
            <g transform="matrix(12,0,0,12,153.958,285.263)">
                <path d="M0.628,-0.361C0.704,-0.393 0.753,-0.452 0.753,-0.536C0.753,-0.641 0.668,-0.7 0.51,-0.7L0.156,-0.7L0.016,-0L0.401,-0C0.581,-0 0.722,-0.07 0.722,-0.222C0.722,-0.287 0.688,-0.335 0.628,-0.361ZM0.463,-0.557C0.515,-0.557 0.546,-0.54 0.546,-0.502C0.546,-0.45 0.508,-0.422 0.438,-0.422L0.296,-0.422L0.323,-0.557L0.463,-0.557ZM0.412,-0.143L0.24,-0.143L0.268,-0.285L0.443,-0.285C0.491,-0.285 0.525,-0.268 0.525,-0.226C0.525,-0.17 0.481,-0.143 0.412,-0.143Z" style="fill:rgb(212,32,41);fill-rule:nonzero;"/>
            </g>
            <g transform="matrix(12,0,0,12,163.066,285.263)">
                <path d="M0.673,-0.547L0.704,-0.7L0.156,-0.7L0.016,-0L0.577,-0L0.609,-0.153L0.242,-0.153L0.267,-0.281L0.579,-0.281L0.608,-0.429L0.297,-0.429L0.32,-0.547L0.673,-0.547Z" style="fill:rgb(212,32,41);fill-rule:nonzero;"/>
            </g>
            <g transform="matrix(12,0,0,12,171.01,285.263)">
                <path d="M0.737,-0.477C0.737,-0.617 0.634,-0.7 0.455,-0.7L0.156,-0.7L0.016,-0L0.214,-0L0.251,-0.186L0.351,-0.186L0.455,-0L0.662,-0L0.543,-0.21C0.665,-0.252 0.737,-0.348 0.737,-0.477ZM0.537,-0.458C0.537,-0.381 0.486,-0.339 0.399,-0.339L0.281,-0.339L0.323,-0.544L0.427,-0.544C0.495,-0.544 0.537,-0.517 0.537,-0.458Z" style="fill:rgb(212,32,41);fill-rule:nonzero;"/>
            </g>
            <g transform="matrix(12,0,0,12,179.77,285.263)">
                <path d="M0.016,-0L0.214,-0L0.354,-0.7L0.156,-0.7L0.016,-0Z" style="fill:rgb(212,32,41);fill-rule:nonzero;"/>
            </g>
            <g transform="matrix(12,0,0,12,183.718,285.263)">
                <path d="M0.628,-0.361C0.704,-0.393 0.753,-0.452 0.753,-0.536C0.753,-0.641 0.668,-0.7 0.51,-0.7L0.156,-0.7L0.016,-0L0.401,-0C0.581,-0 0.722,-0.07 0.722,-0.222C0.722,-0.287 0.688,-0.335 0.628,-0.361ZM0.463,-0.557C0.515,-0.557 0.546,-0.54 0.546,-0.502C0.546,-0.45 0.508,-0.422 0.438,-0.422L0.296,-0.422L0.323,-0.557L0.463,-0.557ZM0.412,-0.143L0.24,-0.143L0.268,-0.285L0.443,-0.285C0.491,-0.285 0.525,-0.268 0.525,-0.226C0.525,-0.17 0.481,-0.143 0.412,-0.143Z" style="fill:rgb(212,32,41);fill-rule:nonzero;"/>
            </g>
            <g transform="matrix(12,0,0,12,192.826,285.263)">
                <path d="M0.548,-0L0.745,-0L0.576,-0.7L0.381,-0.7L-0.068,-0L0.141,-0L0.222,-0.136L0.52,-0.136L0.548,-0ZM0.309,-0.282L0.443,-0.509L0.49,-0.282L0.309,-0.282Z" style="fill:rgb(212,32,41);fill-rule:nonzero;"/>
            </g>
            <g transform="matrix(12,0,0,12,202.138,285.263)">
                <path d="M0.016,-0L0.374,-0C0.631,-0 0.811,-0.158 0.811,-0.406C0.811,-0.587 0.678,-0.7 0.46,-0.7L0.156,-0.7L0.016,-0ZM0.246,-0.158L0.322,-0.542L0.438,-0.542C0.552,-0.542 0.611,-0.487 0.611,-0.394C0.611,-0.26 0.528,-0.158 0.38,-0.158L0.246,-0.158Z" style="fill:rgb(212,32,41);fill-rule:nonzero;"/>
            </g>
            <g transform="matrix(12,0,0,12,211.81,285.263)">
                <path d="M0.548,-0L0.745,-0L0.576,-0.7L0.381,-0.7L-0.068,-0L0.141,-0L0.222,-0.136L0.52,-0.136L0.548,-0ZM0.309,-0.282L0.443,-0.509L0.49,-0.282L0.309,-0.282Z" style="fill:rgb(212,32,41);fill-rule:nonzero;"/>
            </g>
            <g transform="matrix(12,0,0,12,221.122,285.263)">
                <path d="M0.623,-0.7L0.571,-0.438L0.302,-0.438L0.354,-0.7L0.156,-0.7L0.016,-0L0.214,-0L0.268,-0.272L0.537,-0.272L0.483,-0L0.681,-0L0.821,-0.7L0.623,-0.7Z" style="fill:rgb(212,32,41);fill-rule:nonzero;"/>
            </g>
        </g>
    </g>
</svg>
